<svg width="8" height="15" viewBox="0 0 8 15" fill="none" xmlns="http://www.w3.org/2000/svg">
<path id="Vector" d="M8 9.88078C8 7.42992 5.44857 6.74763 3.49314 5.82878C2.30514 5.21221 2.45543 3.73849 4.15714 3.63907C5.10114 3.58192 6.072 3.86192 6.94914 4.16992L7.36285 2.28707C6.32628 1.97221 5.39885 1.82821 4.57143 1.80649V0.643066H3.42857V1.86249C1.20571 2.16821 0.0182857 3.56249 0.0182857 5.11964C0.0182857 7.90592 3.27143 8.33106 4.336 8.82649C5.78743 9.47563 5.51885 10.8265 4.20514 11.1242C3.06628 11.3819 1.612 10.9316 0.519428 10.5076L0 12.3865C1.02114 12.9139 2.24628 13.1962 3.42857 13.2168V14.3573H4.57143V13.1545C6.46457 12.8893 8.00285 11.8442 8 9.88078Z" fill="white"/>
</svg>
