<svg width="14" height="15" viewBox="0 0 14 15" fill="none" xmlns="http://www.w3.org/2000/svg">
<g id="Frame" clip-path="url(#clip0_1388_1261)">
<g id="Group">
<path id="Vector" d="M8.39831 1.46108L5.55273 4.30663C5.54723 4.3121 5.54381 4.31875 5.53834 4.32427C6.23936 4.22217 6.95951 4.29217 7.62708 4.55248L9.55837 2.62119C10.1982 1.98138 11.2387 1.98138 11.8786 2.62119C12.5184 3.26095 12.5184 4.30157 11.8786 4.94134C11.7695 5.05049 8.86848 7.95147 9.03301 7.78689C8.38814 8.43182 7.33015 8.40423 6.71281 7.78689C6.39308 7.46716 5.87251 7.46716 5.55273 7.78689L5.05469 8.28493C5.19283 8.51965 5.3512 8.74551 5.55273 8.94703C6.76788 10.1622 8.85952 10.2593 10.1755 8.96142C10.181 8.95595 10.1876 8.9525 10.1931 8.94703L13.0387 6.10148C14.3201 4.82004 14.3201 2.74252 13.0387 1.46108C11.7572 0.179641 9.67975 0.179641 8.39831 1.46108Z" fill="white"/>
<path id="Vector_2" d="M6.37887 10.4414L4.44134 12.3789C3.80158 13.0187 2.76096 13.0187 2.1212 12.3789C1.48138 11.7391 1.48138 10.6985 2.1212 10.0587L4.97296 7.20696C5.61783 6.56208 6.67582 6.58962 7.29316 7.20696C7.61289 7.52674 8.13349 7.52674 8.45324 7.20696L8.95128 6.70892C8.81314 6.4742 8.65477 6.24834 8.45324 6.04687C7.24041 4.83398 5.15031 4.73079 3.83048 6.03246C3.82499 6.03793 3.81837 6.04138 3.81285 6.04687L0.961058 8.89866C-0.320325 10.18 -0.32038 12.2576 0.961058 13.5391C2.2425 14.8204 4.32007 14.8204 5.60146 13.5391L8.45322 10.6872C8.45871 10.6818 8.46213 10.6752 8.4676 10.6696C7.76659 10.7717 7.04646 10.7017 6.37887 10.4414Z" fill="white"/>
</g>
</g>
<defs>
<clipPath id="clip0_1388_1261">
<rect width="14" height="14" fill="white" transform="translate(0 0.5)"/>
</clipPath>
</defs>
</svg>
